HIERARCHY
ROOT Hips
{
	OFFSET 0.000000 100.052002 0.000000
	CHANNELS 6 Xposition Yposition Zposition Xrotation Yrotation Zrotation
	JOINT Spine
	{
		OFFSET 0.000000 9.717300 -1.180200
		CHANNELS 6 Xposition Yposition Zposition Xrotation Yrotation Zrotation
		JOINT Spine1
		{
			OFFSET 0.000000 11.336784 -1.376941
			CHANNELS 3 Xrotation Yrotation Zrotation
			JOINT Spine2
			{
				OFFSET 0.000000 12.956383 -1.573654
				CHANNELS 3 Xrotation Yrotation Zrotation
				JOINT Neck
				{
					OFFSET 0.000000 14.575882 -1.770355
					CHANNELS 6 Xposition Yposition Zposition Xrotation Yrotation Zrotation
					JOINT Head
					{
						OFFSET 0.000000 6.720200 1.972200
						CHANNELS 6 Xposition Yposition Zposition Xrotation Yrotation Zrotation
						JOINT HeadTop_End
						{
							OFFSET 0.000000 20.999802 6.162800
							CHANNELS 6 Xposition Yposition Zposition Xrotation Yrotation Zrotation
							End Site
							{
								OFFSET 0.000000 21.885422 0.000000
							}
						}
					}
				}
				JOINT LeftShoulder
				{
					OFFSET 6.140200 12.877686 -1.799413
					CHANNELS 6 Xposition Yposition Zposition Xrotation Yrotation Zrotation
					JOINT LeftArm
					{
						OFFSET 12.558889 -3.380020 -0.058110
						CHANNELS 3 Xrotation Yrotation Zrotation
						JOINT LeftForeArm
						{
							OFFSET 25.560802 0.000000 0.000000
							CHANNELS 3 Xrotation Yrotation Zrotation
							JOINT LeftHand
							{
								OFFSET 23.404095 0.000000 0.000000
								CHANNELS 3 Xrotation Yrotation Zrotation
								JOINT LeftHandThumb1
								{
									OFFSET 4.128799 -1.207092 2.573364
									CHANNELS 6 Xposition Yposition Zposition Xrotation Yrotation Zrotation
									JOINT LeftHandThumb2
									{
										OFFSET 3.106247 -1.793396 1.793392
										CHANNELS 6 Xposition Yposition Zposition Xrotation Yrotation Zrotation
										JOINT LeftHandThumb3
										{
											OFFSET 2.788620 -1.610016 1.610011
											CHANNELS 6 Xposition Yposition Zposition Xrotation Yrotation Zrotation
											JOINT LeftHandThumb4
											{
												OFFSET 2.332939 -1.346924 1.346924
												CHANNELS 6 Xposition Yposition Zposition Xrotation Yrotation Zrotation
												End Site
												{
													OFFSET 2.098068 -1.306122 1.721387
												}
											}
										}
									}
								}
								JOINT LeftHandIndex1
								{
									OFFSET 11.999931 -0.333878 2.508170
									CHANNELS 6 Xposition Yposition Zposition Xrotation Yrotation Zrotation
									JOINT LeftHandIndex2
									{
										OFFSET 3.298477 0.000000 0.000000
										CHANNELS 6 Xposition Yposition Zposition Xrotation Yrotation Zrotation
										JOINT LeftHandIndex3
										{
											OFFSET 3.081009 0.000000 0.000000
											CHANNELS 6 Xposition Yposition Zposition Xrotation Yrotation Zrotation
											JOINT LeftHandIndex4
											{
												OFFSET 2.712151 0.000000 0.000000
												CHANNELS 6 Xposition Yposition Zposition Xrotation Yrotation Zrotation
												End Site
												{
													OFFSET 2.712097 -0.000549 -0.016291
												}
											}
										}
									}
								}
								JOINT LeftHandMiddle1
								{
									OFFSET 12.393951 0.000000 0.000000
									CHANNELS 6 Xposition Yposition Zposition Xrotation Yrotation Zrotation
									JOINT LeftHandMiddle2
									{
										OFFSET 3.432213 0.000000 0.000000
										CHANNELS 6 Xposition Yposition Zposition Xrotation Yrotation Zrotation
										JOINT LeftHandMiddle3
										{
											OFFSET 3.160919 0.000000 0.000000
											CHANNELS 6 Xposition Yposition Zposition Xrotation Yrotation Zrotation
											JOINT LeftHandMiddle4
											{
												OFFSET 2.876404 0.000000 0.000000
												CHANNELS 3 Xrotation Yrotation Zrotation
												End Site
												{
													OFFSET 2.876404 0.000000 0.000000
												}
											}
										}
									}
								}
								JOINT LeftHandRing1
								{
									OFFSET 12.360489 -0.116104 -2.298636
									CHANNELS 6 Xposition Yposition Zposition Xrotation Yrotation Zrotation
									JOINT LeftHandRing2
									{
										OFFSET 2.726105 0.000000 0.000000
										CHANNELS 6 Xposition Yposition Zposition Xrotation Yrotation Zrotation
										JOINT LeftHandRing3
										{
											OFFSET 2.620300 0.000000 0.000000
											CHANNELS 6 Xposition Yposition Zposition Xrotation Yrotation Zrotation
											JOINT LeftHandRing4
											{
												OFFSET 2.226906 0.000000 0.000000
												CHANNELS 6 Xposition Yposition Zposition Xrotation Yrotation Zrotation
												End Site
												{
													OFFSET 2.226898 0.000153 0.003196
												}
											}
										}
									}
								}
								JOINT LeftHandPinky1
								{
									OFFSET 10.793266 -0.303589 -4.149957
									CHANNELS 6 Xposition Yposition Zposition Xrotation Yrotation Zrotation
									JOINT LeftHandPinky2
									{
										OFFSET 2.734612 0.000000 0.000000
										CHANNELS 6 Xposition Yposition Zposition Xrotation Yrotation Zrotation
										JOINT LeftHandPinky3
										{
											OFFSET 2.194000 0.000000 0.000000
											CHANNELS 6 Xposition Yposition Zposition Xrotation Yrotation Zrotation
											JOINT LeftHandPinky4
											{
												OFFSET 1.975510 0.000000 0.000000
												CHANNELS 6 Xposition Yposition Zposition Xrotation Yrotation Zrotation
												End Site
												{
													OFFSET 1.975502 -0.000275 -0.005493
												}
											}
										}
									}
								}
							}
						}
					}
				}
				JOINT RightShoulder
				{
					OFFSET -6.140200 12.877701 -1.741290
					CHANNELS 6 Xposition Yposition Zposition Xrotation Yrotation Zrotation
					JOINT RightArm
					{
						OFFSET -12.558887 -3.380020 0.058096
						CHANNELS 3 Xrotation Yrotation Zrotation
						JOINT RightForeArm
						{
							OFFSET -25.571100 0.000000 -0.000001
							CHANNELS 3 Xrotation Yrotation Zrotation
							JOINT RightHand
							{
								OFFSET -23.401703 0.000000 -0.000001
								CHANNELS 3 Xrotation Yrotation Zrotation
								JOINT RightHandThumb1
								{
									OFFSET -4.237885 -1.241806 2.593891
									CHANNELS 6 Xposition Yposition Zposition Xrotation Yrotation Zrotation
									JOINT RightHandThumb2
									{
										OFFSET -3.173721 -1.832352 1.832350
										CHANNELS 6 Xposition Yposition Zposition Xrotation Yrotation Zrotation
										JOINT RightHandThumb3
										{
											OFFSET -2.734779 -1.578934 1.578928
											CHANNELS 6 Xposition Yposition Zposition Xrotation Yrotation Zrotation
											JOINT RightHandThumb4
											{
												OFFSET -2.254745 -1.301773 1.301779
												CHANNELS 6 Xposition Yposition Zposition Xrotation Yrotation Zrotation
												End Site
												{
													OFFSET -2.004616 -1.260025 1.693210
												}
											}
										}
									}
								}
								JOINT RightHandIndex1
								{
									OFFSET -12.582405 -0.171967 2.675169
									CHANNELS 6 Xposition Yposition Zposition Xrotation Yrotation Zrotation
									JOINT RightHandIndex2
									{
										OFFSET -3.117424 0.000000 0.000000
										CHANNELS 6 Xposition Yposition Zposition Xrotation Yrotation Zrotation
										JOINT RightHandIndex3
										{
											OFFSET -2.856110 0.000000 0.000000
											CHANNELS 6 Xposition Yposition Zposition Xrotation Yrotation Zrotation
											JOINT RightHandIndex4
											{
												OFFSET -2.534607 0.000000 0.000000
												CHANNELS 6 Xposition Yposition Zposition Xrotation Yrotation Zrotation
												End Site
												{
													OFFSET -2.534599 -0.000092 -0.005299
												}
											}
										}
									}
								}
								JOINT RightHandMiddle1
								{
									OFFSET -12.213303 0.000000 -0.000000
									CHANNELS 6 Xposition Yposition Zposition Xrotation Yrotation Zrotation
									JOINT RightHandMiddle2
									{
										OFFSET -3.479240 0.000000 0.000000
										CHANNELS 6 Xposition Yposition Zposition Xrotation Yrotation Zrotation
										JOINT RightHandMiddle3
										{
											OFFSET -3.226028 0.000000 0.000000
											CHANNELS 6 Xposition Yposition Zposition Xrotation Yrotation Zrotation
											JOINT RightHandMiddle4
											{
												OFFSET -2.928001 0.000000 0.000000
												CHANNELS 6 Xposition Yposition Zposition Xrotation Yrotation Zrotation
												End Site
												{
													OFFSET -2.927994 -0.000046 -0.002500
												}
											}
										}
									}
								}
								JOINT RightHandRing1
								{
									OFFSET -12.155838 -0.109528 -2.139221
									CHANNELS 6 Xposition Yposition Zposition Xrotation Yrotation Zrotation
									JOINT RightHandRing2
									{
										OFFSET -2.821602 0.000000 0.000000
										CHANNELS 6 Xposition Yposition Zposition Xrotation Yrotation Zrotation
										JOINT RightHandRing3
										{
											OFFSET -2.687714 0.000000 0.000000
											CHANNELS 6 Xposition Yposition Zposition Xrotation Yrotation Zrotation
											JOINT RightHandRing4
											{
												OFFSET -2.368401 0.000000 0.000000
												CHANNELS 6 Xposition Yposition Zposition Xrotation Yrotation Zrotation
												End Site
												{
													OFFSET -2.368408 0.000122 0.004098
												}
											}
										}
									}
								}
								JOINT RightHandPinky1
								{
									OFFSET -10.912514 -0.136993 -4.154601
									CHANNELS 6 Xposition Yposition Zposition Xrotation Yrotation Zrotation
									JOINT RightHandPinky2
									{
										OFFSET -2.640511 0.000000 0.000000
										CHANNELS 6 Xposition Yposition Zposition Xrotation Yrotation Zrotation
										JOINT RightHandPinky3
										{
											OFFSET -2.149010 0.000000 0.000000
											CHANNELS 6 Xposition Yposition Zposition Xrotation Yrotation Zrotation
											JOINT RightHandPinky4
											{
												OFFSET -1.888405 0.000000 0.000000
												CHANNELS 6 Xposition Yposition Zposition Xrotation Yrotation Zrotation
												End Site
												{
													OFFSET -1.888397 -0.000076 -0.002499
												}
											}
										}
									}
								}
							}
						}
					}
				}
			}
		}
	}
	JOINT LeftUpLeg
	{
		OFFSET 8.078200 -5.402397 -0.535900
		CHANNELS 6 Xposition Yposition Zposition Xrotation Yrotation Zrotation
		JOINT LeftLeg
		{
			OFFSET 0.166247 -42.704498 -2.695473
			CHANNELS 3 Xrotation Yrotation Zrotation
			JOINT LeftFoot
			{
				OFFSET -0.166255 -42.074757 -2.882279
				CHANNELS 3 Xrotation Yrotation Zrotation
				JOINT LeftToeBase
				{
					OFFSET 1.133370 -9.116460 13.321884
					CHANNELS 3 Xrotation Yrotation Zrotation
					JOINT LeftToe_End
					{
						OFFSET 0.591577 -0.054453 6.177401
						CHANNELS 3 Xrotation Yrotation Zrotation
						End Site
						{
							OFFSET 0.591577 -0.054453 6.177402
						}
					}
				}
			}
		}
	}
	JOINT RightUpLeg
	{
		OFFSET -8.078200 -5.402397 -0.751800
		CHANNELS 6 Xposition Yposition Zposition Xrotation Yrotation Zrotation
		JOINT RightLeg
		{
			OFFSET -0.166221 -42.704521 -2.464558
			CHANNELS 3 Xrotation Yrotation Zrotation
			JOINT RightFoot
			{
				OFFSET 0.166220 -42.074753 -2.968993
				CHANNELS 3 Xrotation Yrotation Zrotation
				JOINT RightToeBase
				{
					OFFSET -1.133402 -9.116828 13.416508
					CHANNELS 3 Xrotation Yrotation Zrotation
					JOINT RightToe_End
					{
						OFFSET -0.591581 -0.054615 6.151378
						CHANNELS 3 Xrotation Yrotation Zrotation
						End Site
						{
							OFFSET -0.591581 -0.054615 6.151378
						}
					}
				}
			}
		}
	}
}
MOTION
Frames: 4
Frame Time: 0.033333
-1.131128 81.628929 345.862823 -14.546674 -1.055038 -3.146995 -0.000000 9.717299 -1.180215 20.254342 2.833214 -2.240423 8.638330 0.623398 3.070019 8.613002 0.734702 3.099566 0.000000 14.575893 -1.770359 -6.226457 -9.429072 8.319579 -0.000007 6.720164 1.972195 -6.226442 -9.429067 8.319587 0.000017 20.999817 6.162799 0.000001 0.000001 -0.000001 6.140198 12.877680 -1.799440 0.706161 -4.073685 11.658808 -40.458957 -9.927297 -35.271169 0.000003 -8.647401 -0.000010 11.678385 1.073537 11.929574 4.128804 -1.207086 2.573343 -1.892367 16.635342 8.126273 3.106214 -1.793363 1.793392 4.973036 20.947065 1.680440 2.788624 -1.610015 1.610019 -0.579465 1.575005 2.538713 2.332897 -1.346931 1.346949 -0.000001 0.000002 0.000002 11.999927 -0.333865 2.508143 0.003905 -0.232344 1.925652 3.298481 -0.000003 -0.000043 0.042927 0.769298 -6.388208 3.081023 -0.000014 0.000029 0.143098 1.399204 -11.677297 2.712165 -0.000032 0.000002 0.000001 0.000003 0.000003 12.393950 0.000006 -0.000012 0.002021 0.167172 -1.385354 3.432207 -0.000005 -0.000015 0.110391 1.230449 -10.252171 3.160928 0.000009 0.000016 0.254487 1.858248 -15.595265 0.000000 0.000001 -0.000002 12.360486 -0.116098 -2.298669 0.031950 0.663903 -5.510040 2.726092 -0.000000 -0.000009 0.245106 1.824285 -15.303100 2.620273 -0.000048 -0.000010 0.436879 2.417909 -20.480903 2.226918 0.000001 0.000026 0.000003 0.000002 0.000001 10.793241 -0.303587 -4.149971 0.702132 5.086957 -8.507978 2.734611 0.000022 0.000022 0.396140 -1.758198 -19.917904 2.194015 0.000033 -0.000046 0.611683 2.841846 -24.288856 1.975484 -0.000001 -0.000001 -0.000003 -0.000002 0.000001 -6.140198 12.877705 -1.741302 0.865397 5.030797 -1.580423 -40.542528 63.057700 69.046956 0.000021 99.449883 -0.000027 10.386328 0.641792 -17.133589 -4.237896 -1.241822 2.593906 -4.151972 -14.020106 -16.303807 -3.173737 -1.832365 1.832395 15.239950 -19.689460 21.606416 -2.734769 -1.578940 1.578970 -1.273757 0.137307 -2.094869 -2.254765 -1.301742 1.301804 0.000007 -0.000002 -0.000001 -12.582421 -0.171974 2.675199 0.026961 0.612890 -5.035951 -3.117398 0.000020 -0.000043 0.005560 -0.279097 2.290842 -2.856098 0.000019 0.000030 0.029198 -0.637704 5.240332 -2.534589 0.000022 0.000020 0.000002 0.000001 -0.000001 -12.213318 0.000008 0.000016 0.002306 0.179642 -1.474278 -3.479276 -0.000022 0.000011 0.034976 -0.697975 5.737077 -3.226043 0.000018 0.000017 0.090685 -1.121617 9.244906 -2.928005 -0.000016 -0.000014 0.000000 -0.000000 -0.000001 -12.155845 -0.109551 -2.139185 0.008612 -0.346720 2.846223 -2.821617 -0.000018 -0.000014 0.113302 -1.252608 10.336075 -2.687713 -0.000019 -0.000038 0.213699 -1.713921 14.213460 -2.368408 -0.000013 0.000032 -0.000001 0.000000 -0.000000 -10.912521 -0.136981 -4.154598 0.044027 -0.782807 6.437332 -2.640500 -0.000025 -0.000024 0.209565 -1.697562 14.074783 -2.149016 -0.000028 0.000022 0.346402 -2.171278 18.126110 -1.888397 -0.000015 0.000015 0.000002 -0.000000 -0.000000 8.078199 -5.402402 -0.535920 -21.316274 22.947815 20.145291 74.392972 6.939929 6.362016 -40.956727 12.527557 -10.931165 -0.394691 0.000003 -0.000005 -0.000000 -0.000002 0.000000 -8.078202 -5.402388 -0.751811 -80.056627 -22.768874 -21.714111 93.584117 -8.370921 6.286933 53.590235 -8.216619 2.426171 3.261846 0.000011 0.000004 -0.000003 0.000002 0.000000 
-2.474877 84.218277 347.407440 -17.358400 -1.694077 -5.765698 0.000001 9.717284 -1.180213 24.637949 4.248602 -0.323396 5.942031 0.680562 3.984264 5.908148 0.827612 3.992777 0.000002 14.575905 -1.770342 -6.007468 -9.916566 8.663975 -0.000008 6.720177 1.972135 -6.007451 -9.916570 8.663992 -0.000010 20.999817 6.162783 -0.000000 -0.000001 -0.000002 6.140202 12.877706 -1.799388 0.403871 -2.558554 14.670463 -43.461399 -8.769241 -31.021111 -0.000004 -8.607667 -0.000009 16.301694 1.641408 12.789097 4.128827 -1.207085 2.573419 -1.892369 16.635347 8.126275 3.106245 -1.793386 1.793375 4.973033 20.947061 1.680433 2.788576 -1.610003 1.610068 -0.579466 1.575005 2.538711 2.332934 -1.346933 1.346919 -0.000001 -0.000002 0.000002 11.999957 -0.333886 2.508211 0.003809 -0.229749 1.903968 3.298465 0.000006 0.000042 0.049518 0.825965 -6.861131 3.081024 -0.000021 -0.000004 0.139430 1.381380 -11.526445 2.712158 -0.000014 -0.000016 0.000001 0.000001 -0.000000 12.393980 -0.000001 0.000059 0.001562 0.147015 -1.218382 3.432220 0.000008 0.000017 0.116465 1.263598 -10.531587 3.160926 0.000031 0.000021 0.251408 1.847161 -15.499876 -0.000000 0.000000 0.000003 12.360480 -0.116107 -2.298625 0.027457 0.615553 -5.107771 2.726073 -0.000007 -0.000004 0.246656 1.829960 -15.351841 2.620342 -0.000034 0.000019 0.434717 2.412102 -20.429584 2.226889 -0.000014 -0.000014 0.000000 0.000002 0.000000 10.793283 -0.303570 -4.149924 0.648727 5.021285 -7.901785 2.734631 -0.000008 0.000030 0.391388 -1.771383 -19.801912 2.193964 -0.000001 0.000020 0.610731 2.839760 -24.269896 1.975531 -0.000029 0.000043 -0.000002 0.000001 -0.000003 -6.140199 12.877734 -1.741247 0.613316 3.083335 -4.186180 -41.583722 60.554620 62.463029 -0.000048 108.595473 0.000023 9.438128 1.114996 -17.034546 -4.237912 -1.241788 2.593889 -4.151973 -14.020098 -16.303802 -3.173744 -1.832344 1.832349 15.239955 -19.689470 21.606417 -2.734767 -1.578931 1.578938 -1.273757 0.137302 -2.094866 -2.254687 -1.301788 1.301838 0.000001 -0.000006 0.000001 -12.582420 -0.171945 2.675158 0.042123 0.765793 -6.296818 -3.117390 0.000030 -0.000048 0.005753 -0.283535 2.327231 -2.856128 0.000017 -0.000013 0.031217 -0.659398 5.419018 -2.534606 0.000035 0.000000 -0.000000 0.000001 0.000003 -12.213328 0.000012 -0.000018 0.004751 0.257519 -2.113564 -3.479239 0.000010 0.000009 0.033848 -0.686722 5.644427 -3.226017 -0.000039 0.000041 0.091625 -1.127299 9.292111 -2.928038 0.000000 -0.000024 0.000001 0.000001 -0.000001 -12.155864 -0.109497 -2.139222 0.009254 -0.359432 2.950785 -2.821607 0.000004 -0.000002 0.109065 -1.229195 10.140697 -2.687719 0.000041 0.000014 0.209780 -1.698343 14.081463 -2.368392 0.000016 0.000023 0.000000 -0.000000 -0.000001 -10.912529 -0.136989 -4.154584 0.054331 -0.869269 7.152025 -2.640533 -0.000017 0.000016 0.200482 -1.660894 13.764490 -2.149016 0.000017 -0.000022 0.336537 -2.140999 17.864573 -1.888397 0.000000 0.000075 0.000002 -0.000000 0.000000 8.078204 -5.402418 -0.535931 -16.267514 24.391128 24.598433 68.252120 6.238679 5.954340 -38.145794 10.784322 -12.547358 -0.023683 -0.000022 0.000003 -0.000000 -0.000003 0.000000 -8.078197 -5.402404 -0.751831 -84.347311 -22.253444 -25.729661 100.722122 -7.988376 6.455013 54.420823 -5.715542 3.655839 4.978336 0.000012 -0.000014 -0.000003 0.000004 -0.000001 
-3.620133 88.334389 350.168549 -17.853857 -4.509751 -8.599738 0.000004 9.717290 -1.180203 25.319895 6.532040 4.156711 2.920680 0.806968 3.316448 2.896648 0.924214 3.303659 0.000000 14.575879 -1.770346 -5.222816 -10.013097 8.404281 0.000000 6.720207 1.972229 -5.222742 -10.013080 8.404267 -0.000014 20.999786 6.162752 -0.000000 -0.000001 0.000002 6.140192 12.877679 -1.799393 0.071015 -1.305987 17.468748 -42.802630 -4.658814 -28.715188 -0.000006 -8.562321 -0.000002 22.120732 2.555546 13.195031 4.128778 -1.207072 2.573314 -1.892369 16.635346 8.126270 3.106241 -1.793388 1.793369 4.973035 20.947060 1.680434 2.788603 -1.610019 1.609985 -0.579463 1.575003 2.538715 2.332913 -1.346919 1.346972 -0.000001 0.000000 -0.000002 11.999911 -0.333874 2.508143 0.010404 -0.379122 3.143127 3.298499 0.000013 0.000016 0.057329 0.888530 -7.383661 3.081017 0.000000 -0.000013 0.139816 1.383226 -11.542056 2.712144 -0.000031 0.000032 0.000001 -0.000003 -0.000000 12.393946 0.000001 -0.000003 0.000173 0.047931 -0.397212 3.432184 0.000001 0.000026 0.121724 1.291560 -10.767369 3.160950 -0.000017 0.000001 0.252268 1.850254 -15.526482 0.000000 0.000001 0.000000 12.360486 -0.116103 -2.298620 0.024015 0.575761 -4.776686 2.726114 -0.000031 -0.000047 0.244985 1.823847 -15.299323 2.620306 0.000010 -0.000003 0.434690 2.412035 -20.428923 2.226896 -0.000016 0.000010 0.000000 0.000001 -0.000002 10.793252 -0.303553 -4.149969 0.654219 5.028101 -7.964466 2.734627 -0.000010 -0.000000 0.379555 -1.804489 -19.510978 2.193985 -0.000001 -0.000031 0.610173 2.838500 -24.258564 1.975506 0.000007 0.000018 0.000001 0.000000 -0.000002 -6.140203 12.877713 -1.741259 0.362873 1.655335 -6.538856 -39.073132 57.215556 57.294765 0.000022 112.781948 -0.000020 11.342642 1.337709 -16.323001 -4.237916 -1.241828 2.593879 -4.151975 -14.020102 -16.303798 -3.173737 -1.832326 1.832391 15.239959 -19.689470 21.606424 -2.734741 -1.578880 1.578945 -1.273757 0.137303 -2.094864 -2.254717 -1.301761 1.301803 0.000005 -0.000003 0.000001 -12.582428 -0.171997 2.675165 0.058429 0.901411 -7.417944 -3.117419 0.000018 -0.000000 0.004010 -0.236526 1.941133 -2.856135 0.000004 -0.000058 0.033379 -0.681903 5.604665 -2.534616 -0.000012 -0.000006 -0.000001 -0.000000 0.000003 -12.213321 -0.000036 -0.000028 0.007469 0.322785 -2.649672 -3.479236 0.000002 -0.000001 0.030670 -0.653715 5.372284 -3.226048 -0.000016 -0.000007 0.092568 -1.133111 9.340419 -2.928014 -0.000019 -0.000010 -0.000001 -0.000001 -0.000001 -12.155869 -0.109530 -2.139262 0.010319 -0.379602 3.116447 -2.821614 0.000008 0.000041 0.107185 -1.218588 10.052262 -2.687707 0.000029 -0.000027 0.206327 -1.684545 13.964669 -2.368393 -0.000000 -0.000027 -0.000000 0.000000 0.000000 -10.912538 -0.137022 -4.154605 0.066174 -0.958992 7.894776 -2.640524 0.000026 0.000004 0.201412 -1.664675 13.796565 -2.149016 -0.000020 -0.000004 0.327380 -2.112391 17.617612 -1.888398 -0.000031 -0.000006 0.000001 0.000000 0.000000 8.078200 -5.402409 -0.535912 -8.244936 24.601339 24.495121 56.874149 5.553690 3.824488 -32.911038 14.428324 -12.834149 -1.450014 0.000006 0.000007 0.000000 0.000001 0.000000 -8.078200 -5.402394 -0.751812 -87.876633 -22.028403 -28.524829 110.269668 -7.320807 5.914754 51.099603 -5.435547 3.633206 5.887905 0.000011 -0.000007 0.000000 0.000001 -0.000000 
-5.040495 93.249390 353.496826 -15.063634 -8.864651 -10.226938 -0.000004 9.717285 -1.180174 20.890332 8.597166 9.650578 0.737739 1.023197 1.477903 0.746274 1.072272 1.448810 0.000000 14.575879 -1.770377 -3.877762 -9.832036 8.030143 0.000003 6.720191 1.972153 -3.877747 -9.832039 8.030162 -0.000001 20.999802 6.162804 0.000000 -0.000001 -0.000000 6.140193 12.877697 -1.799436 -0.117684 -0.752147 19.359092 -40.532989 2.362329 -26.432894 0.000001 -8.536490 -0.000001 27.057972 3.438991 13.305053 4.128814 -1.207074 2.573318 -1.892366 16.635344 8.126276 3.106253 -1.793421 1.793412 4.973035 20.947063 1.680433 2.788604 -1.610034 1.610014 -0.579463 1.575009 2.538715 2.332950 -1.346921 1.346901 -0.000000 0.000003 0.000002 11.999956 -0.333869 2.508127 0.024047 -0.576177 4.780206 3.298473 -0.000013 0.000031 0.057495 0.889811 -7.394495 3.080980 -0.000006 0.000043 0.145582 1.411164 -11.778608 2.712143 -0.000015 0.000009 0.000000 0.000001 0.000000 12.393965 0.000019 -0.000018 0.000190 -0.051577 0.427516 3.432182 0.000004 0.000008 0.119158 1.277989 -10.652984 3.160901 0.000014 0.000014 0.257112 1.867594 -15.675783 0.000000 0.000003 -0.000000 12.360499 -0.116079 -2.298689 0.025523 0.593552 -4.924549 2.726088 -0.000016 0.000053 0.238792 1.801068 -15.103539 2.620275 -0.000039 -0.000005 0.435646 2.414594 -20.451618 2.226895 -0.000046 -0.000038 -0.000001 0.000001 0.000001 10.793271 -0.303557 -4.149994 0.738387 5.130743 -8.915172 2.734601 -0.000001 -0.000017 0.367490 -1.838833 -19.209852 2.193989 0.000014 -0.000065 0.607293 2.832132 -24.200339 1.975511 -0.000021 -0.000023 0.000000 -0.000001 -0.000004 -6.140202 12.877718 -1.741321 0.162453 0.605533 -8.343547 -33.347005 54.695448 53.327723 -0.000015 114.765278 0.000008 15.531435 1.385766 -15.763214 -4.237878 -1.241845 2.593937 -4.151978 -14.020101 -16.303803 -3.173714 -1.832338 1.832335 15.239955 -19.689465 21.606414 -2.734787 -1.578896 1.578961 -1.273761 0.137304 -2.094865 -2.254713 -1.301788 1.301758 -0.000000 -0.000003 -0.000001 -12.582391 -0.171995 2.675206 0.064413 0.946263 -7.789328 -3.117404 -0.000016 0.000014 0.001830 -0.159726 1.310771 -2.856134 0.000023 -0.000002 0.033599 -0.684119 5.622888 -2.534621 0.000018 0.000043 -0.000001 -0.000001 0.000003 -12.213305 0.000017 0.000038 0.008805 0.350767 -2.879428 -3.479244 0.000006 0.000016 0.027053 -0.613896 5.044011 -3.226036 0.000015 -0.000054 0.091702 -1.127864 9.296731 -2.928015 -0.000033 -0.000000 0.000000 0.000001 -0.000000 -12.155847 -0.109534 -2.139181 0.009907 -0.371994 3.053944 -2.821609 0.000022 0.000007 0.108245 -1.224574 10.102214 -2.687700 -0.000005 -0.000013 0.203480 -1.673083 13.867673 -2.368409 0.000017 -0.000015 -0.000000 0.000001 0.000000 -10.912512 -0.137005 -4.154557 0.067400 -0.967771 7.967609 -2.640522 0.000000 -0.000024 0.211930 -1.706933 14.154159 -2.149033 -0.000016 0.000049 0.321682 -2.094371 17.462379 -1.888389 0.000000 -0.000005 0.000001 -0.000000 -0.000000 8.078197 -5.402408 -0.535859 -3.079319 22.052722 19.546451 45.880652 9.353880 3.815284 -21.891029 19.767416 -9.974738 -9.986679 0.000003 -0.000001 0.000000 -0.000002 -0.000001 -8.078201 -5.402407 -0.751781 -91.081829 -21.904837 -31.198631 120.310394 -6.583837 5.140179 47.799600 -6.156916 3.724545 5.736872 -0.000022 -0.000002 0.000000 -0.000001 -0.000001 
